<?xml version="1.0" encoding="UTF-8"?>
<!-- Do not edit this file with editors other than diagrams.net -->
<!DOCTYPE svg PUBLIC "-//W3C//DTD SVG 1.1//EN" "http://www.w3.org/Graphics/SVG/1.1/DTD/svg11.dtd">
<svg xmlns="http://www.w3.org/2000/svg" xmlns:xlink="http://www.w3.org/1999/xlink" version="1.1" width="521px" height="401px" viewBox="-0.5 -0.5 521 401" content="&lt;mxfile host=&quot;app.diagrams.net&quot; modified=&quot;2023-04-24T10:38:34.418Z&quot; agent=&quot;Mozilla/5.0 (X11; Linux x86_64) AppleWebKit/537.36 (KHTML, like Gecko) Chrome/109.0.0.0 Safari/537.36&quot; etag=&quot;BgJaKRimbjIMS6bMTyWJ&quot; version=&quot;21.2.1&quot; type=&quot;github&quot;&gt;&#10;  &lt;diagram id=&quot;C5RBs43oDa-KdzZeNtuy&quot; name=&quot;Page-1&quot;&gt;&#10;    &lt;mxGraphModel dx=&quot;685&quot; dy=&quot;388&quot; grid=&quot;1&quot; gridSize=&quot;10&quot; guides=&quot;1&quot; tooltips=&quot;1&quot; connect=&quot;1&quot; arrows=&quot;1&quot; fold=&quot;1&quot; page=&quot;1&quot; pageScale=&quot;1&quot; pageWidth=&quot;827&quot; pageHeight=&quot;1169&quot; math=&quot;0&quot; shadow=&quot;0&quot;&gt;&#10;      &lt;root&gt;&#10;        &lt;mxCell id=&quot;WIyWlLk6GJQsqaUBKTNV-0&quot; /&gt;&#10;        &lt;mxCell id=&quot;WIyWlLk6GJQsqaUBKTNV-1&quot; parent=&quot;WIyWlLk6GJQsqaUBKTNV-0&quot; /&gt;&#10;        &lt;mxCell id=&quot;VL_9TSlYF1ZZfd3ZFaw1-1&quot; value=&quot;&quot; style=&quot;shape=curlyBracket;whiteSpace=wrap;html=1;rounded=1;labelPosition=left;verticalLabelPosition=middle;align=right;verticalAlign=middle;&quot; vertex=&quot;1&quot; parent=&quot;WIyWlLk6GJQsqaUBKTNV-1&quot;&gt;&#10;          &lt;mxGeometry x=&quot;130&quot; y=&quot;360&quot; width=&quot;20&quot; height=&quot;400&quot; as=&quot;geometry&quot; /&gt;&#10;        &lt;/mxCell&gt;&#10;        &lt;mxCell id=&quot;VL_9TSlYF1ZZfd3ZFaw1-2&quot; value=&quot;&quot; style=&quot;shape=curlyBracket;whiteSpace=wrap;html=1;rounded=1;flipH=1;labelPosition=right;verticalLabelPosition=middle;align=left;verticalAlign=middle;size=0.5;&quot; vertex=&quot;1&quot; parent=&quot;WIyWlLk6GJQsqaUBKTNV-1&quot;&gt;&#10;          &lt;mxGeometry x=&quot;340&quot; y=&quot;360&quot; width=&quot;20&quot; height=&quot;400&quot; as=&quot;geometry&quot; /&gt;&#10;        &lt;/mxCell&gt;&#10;        &lt;mxCell id=&quot;VL_9TSlYF1ZZfd3ZFaw1-3&quot; value=&quot;&quot; style=&quot;shape=curlyBracket;whiteSpace=wrap;html=1;rounded=1;labelPosition=left;verticalLabelPosition=middle;align=right;verticalAlign=middle;size=0.5;&quot; vertex=&quot;1&quot; parent=&quot;WIyWlLk6GJQsqaUBKTNV-1&quot;&gt;&#10;          &lt;mxGeometry x=&quot;480&quot; y=&quot;360&quot; width=&quot;20&quot; height=&quot;400&quot; as=&quot;geometry&quot; /&gt;&#10;        &lt;/mxCell&gt;&#10;        &lt;mxCell id=&quot;VL_9TSlYF1ZZfd3ZFaw1-6&quot; value=&quot;&quot; style=&quot;shape=curlyBracket;whiteSpace=wrap;html=1;rounded=1;flipH=1;labelPosition=right;verticalLabelPosition=middle;align=left;verticalAlign=middle;size=0;&quot; vertex=&quot;1&quot; parent=&quot;WIyWlLk6GJQsqaUBKTNV-1&quot;&gt;&#10;          &lt;mxGeometry x=&quot;600&quot; y=&quot;360&quot; width=&quot;50&quot; height=&quot;400&quot; as=&quot;geometry&quot; /&gt;&#10;        &lt;/mxCell&gt;&#10;        &lt;mxCell id=&quot;VL_9TSlYF1ZZfd3ZFaw1-8&quot; value=&quot;&quot; style=&quot;rounded=0;whiteSpace=wrap;html=1;&quot; vertex=&quot;1&quot; parent=&quot;WIyWlLk6GJQsqaUBKTNV-1&quot;&gt;&#10;          &lt;mxGeometry x=&quot;180&quot; y=&quot;370&quot; width=&quot;140&quot; height=&quot;70&quot; as=&quot;geometry&quot; /&gt;&#10;        &lt;/mxCell&gt;&#10;      &lt;/root&gt;&#10;    &lt;/mxGraphModel&gt;&#10;  &lt;/diagram&gt;&#10;&lt;/mxfile&gt;&#10;" resource="https://app.diagrams.net/?libs=general;flowchart&amp;src=about#Hgsj0519%2Fshengwenshibie%2Fmain%2F1.drawio.svg"><defs/><g><path d="M 20 0 L 15 0 Q 10 0 10 10 L 10 190 Q 10 200 5 200 L 2.5 200 Q 0 200 5 200 L 7.5 200 Q 10 200 10 210 L 10 390 Q 10 400 15 400 L 20 400" fill="none" stroke="rgb(0, 0, 0)" stroke-miterlimit="10" pointer-events="all"/><path d="M 230 0 L 225 0 Q 220 0 220 10 L 220 190 Q 220 200 215 200 L 212.5 200 Q 210 200 215 200 L 217.5 200 Q 220 200 220 210 L 220 390 Q 220 400 225 400 L 230 400" fill="none" stroke="rgb(0, 0, 0)" stroke-miterlimit="10" transform="translate(220,0)scale(-1,1)translate(-220,0)" pointer-events="all"/><path d="M 370 0 L 365 0 Q 360 0 360 10 L 360 190 Q 360 200 355 200 L 352.5 200 Q 350 200 355 200 L 357.5 200 Q 360 200 360 210 L 360 390 Q 360 400 365 400 L 370 400" fill="none" stroke="rgb(0, 0, 0)" stroke-miterlimit="10" pointer-events="all"/><path d="M 520 0 L 480 0 Q 470 0 470 10 L 470 190 Q 470 200 470 210 L 470 390 Q 470 400 480 400 L 520 400" fill="none" stroke="rgb(0, 0, 0)" stroke-miterlimit="10" transform="translate(495,0)scale(-1,1)translate(-495,0)" pointer-events="all"/><rect x="50" y="10" width="140" height="70" fill="rgb(255, 255, 255)" stroke="rgb(0, 0, 0)" pointer-events="all"/></g></svg>